<?xml version="1.0" standalone="no"?>
<!DOCTYPE svg PUBLIC "-//W3C//DTD SVG 20010904//EN"
 "http://www.w3.org/TR/2001/REC-SVG-20010904/DTD/svg10.dtd">
<svg version="1.0" xmlns="http://www.w3.org/2000/svg"
 width="512.000000pt" height="512.000000pt" viewBox="0 0 512.000000 512.000000"
 preserveAspectRatio="xMidYMid meet">
<metadata>
Created by potrace 1.16, written by Peter Selinger 2001-2019
</metadata>
<g transform="translate(0.000000,512.000000) scale(0.100000,-0.100000)"
fill="#000000" stroke="none">
<path d="M512 5057 c-49 -18 -99 -63 -124 -110 -22 -39 -23 -56 -26 -274 l-4
-233 -126 0 c-109 0 -132 -3 -160 -20 -61 -37 -72 -70 -72 -209 0 -113 2 -128
22 -158 13 -18 41 -42 64 -53 37 -18 61 -20 302 -20 l262 0 0 -119 0 -119
-252 -4 c-285 -3 -302 -7 -362 -82 l-31 -38 -3 -605 c-3 -680 -7 -643 69 -643
29 0 42 6 58 26 21 26 21 35 21 586 0 366 4 566 10 579 11 19 43 19 1984 19
1595 0 1976 -2 1984 -13 11 -13 32 -122 32 -164 l0 -23 -479 0 -478 0 -33 -23
c-19 -12 -43 -38 -54 -57 -20 -34 -21 -52 -24 -470 -2 -239 0 -459 3 -488 8
-65 57 -126 113 -142 24 -6 347 -10 900 -10 l862 0 0 -134 0 -135 -169 -3
c-188 -3 -200 -7 -248 -78 -22 -31 -23 -43 -23 -195 0 -152 1 -164 23 -195 48
-71 60 -75 248 -78 l169 -3 0 -135 0 -134 -181 0 -181 0 -55 50 c-60 55 -168
113 -253 135 -71 19 -239 19 -310 0 -85 -22 -193 -80 -253 -135 l-55 -50 -346
0 -346 0 -512 145 c-282 80 -886 252 -1343 382 -456 130 -865 245 -908 257
l-77 21 0 108 c0 101 -2 109 -25 132 -28 29 -70 32 -103 9 l-22 -15 0 -718 0
-718 22 -33 c40 -57 77 -70 209 -70 l116 0 17 -67 c81 -335 408 -539 748 -468
179 38 348 170 426 335 22 47 46 111 52 143 l11 57 958 0 958 0 17 -67 c81
-335 408 -539 748 -468 179 38 348 170 426 335 22 47 46 111 52 143 l11 57
117 0 c133 0 170 13 210 70 l22 33 0 770 0 770 -22 35 c-41 66 -68 72 -369 72
l-267 0 -5 33 c-4 17 -40 289 -82 602 -42 314 -81 587 -86 608 -11 43 -58 101
-103 125 -26 15 -69 17 -293 20 l-263 3 0 119 0 119 274 3 c260 3 276 4 303
24 63 47 73 75 73 209 0 110 -2 125 -23 156 -38 58 -74 69 -219 69 l-127 0 -3
244 -3 244 -30 44 c-20 28 -49 53 -84 71 l-55 27 -751 0 -752 0 -47 -24 -48
-24 -36 21 c-37 22 -38 22 -797 24 -569 1 -768 -1 -793 -10z m1528 -167 c19
-19 20 -33 20 -235 l0 -215 -770 0 -770 0 0 209 c0 196 1 210 21 235 l20 26
730 0 c716 0 729 0 749 -20z m1699 -6 c20 -25 21 -39 21 -235 l0 -209 -770 0
-770 0 0 215 c0 202 1 216 20 235 20 20 33 20 749 20 l730 0 20 -26z m389
-671 l3 -73 -581 0 -581 0 -24 -25 c-35 -34 -34 -86 1 -114 25 -20 39 -21 275
-21 l249 0 0 -120 0 -120 -625 0 -625 0 0 120 0 120 224 0 c211 0 225 1 250
21 35 28 36 80 1 114 l-24 25 -1261 0 -1260 0 0 70 0 69 88 4 c48 1 942 3
1987 2 l1900 0 3 -72z m-2068 -353 l0 -120 -625 0 -625 0 0 120 0 120 625 0
625 0 0 -120z m2183 -1062 c32 -238 57 -439 57 -445 0 -10 -112 -13 -525 -13
l-525 0 0 445 0 445 468 0 467 0 58 -432z m727 -1158 l0 -121 -142 3 -143 3
-3 118 -3 117 146 0 145 0 0 -120z m-3855 -166 c479 -135 969 -275 1090 -309
l220 -64 -494 0 -493 -1 -55 50 c-60 55 -168 113 -253 135 -71 19 -239 19
-310 0 -85 -22 -193 -80 -253 -135 l-55 -50 -181 0 -181 0 0 324 0 325 48 -14
c26 -8 439 -125 917 -261z m-3 -344 c86 -26 177 -87 229 -152 194 -244 113
-592 -168 -725 -68 -33 -89 -38 -169 -41 -222 -10 -406 112 -475 315 -32 94
-32 223 1 308 59 154 172 259 323 300 77 20 184 19 259 -5z m3170 0 c86 -26
177 -87 229 -152 194 -244 113 -592 -168 -725 -68 -33 -89 -38 -169 -41 -222
-10 -406 112 -475 315 -32 94 -32 223 1 308 59 154 172 259 323 300 77 20 184
19 259 -5z m-3882 -197 c-1 -5 -9 -33 -20 -63 -11 -30 -19 -67 -20 -82 l0 -28
-105 0 -105 0 0 90 0 90 125 0 c69 0 125 -3 125 -7z m3170 0 c-1 -5 -9 -33
-20 -63 -11 -30 -19 -67 -20 -82 l0 -28 -970 0 -970 0 0 28 c-1 15 -9 52 -20
82 -11 30 -19 58 -20 63 0 4 455 7 1010 7 556 0 1010 -3 1010 -7z m1400 -83
l0 -90 -105 0 -105 0 0 28 c-1 15 -9 52 -20 82 -11 30 -19 58 -20 63 0 4 56 7
125 7 l125 0 0 -90z"/>
<path d="M921 949 c-204 -39 -291 -289 -154 -448 81 -95 221 -124 329 -68 126
64 184 207 138 339 -41 123 -182 202 -313 177z m120 -166 c31 -18 59 -67 59
-103 0 -37 -31 -90 -63 -106 -64 -33 -142 -11 -171 50 -20 42 -20 69 -1 110
29 62 114 85 176 49z"/>
<path d="M4091 949 c-204 -39 -291 -289 -154 -448 109 -128 307 -128 416 0
117 136 74 347 -86 422 -62 30 -116 38 -176 26z m120 -166 c31 -18 59 -67 59
-103 0 -37 -31 -90 -63 -106 -64 -33 -142 -11 -171 50 -20 42 -20 69 -1 110
29 62 114 85 176 49z"/>
<path d="M815 3371 c-42 -18 -430 -352 -448 -387 -16 -32 -18 -64 -15 -364 3
-316 4 -330 24 -357 12 -15 36 -37 55 -48 33 -20 54 -20 1172 -23 755 -1 1151
1 1177 8 58 16 107 75 115 142 3 29 5 249 3 488 -3 414 -4 437 -23 469 -11 19
-33 43 -48 55 -28 21 -29 21 -1010 23 -540 1 -991 -2 -1002 -6z m943 -583 l-3
-443 -417 -3 -418 -2 0 445 0 445 420 0 420 0 -2 -442z m982 -3 l0 -445 -415
0 -415 0 0 445 0 445 415 0 415 0 0 -445z m-1970 -45 l0 -401 -132 3 -133 3
-3 286 -2 287 132 111 c73 61 134 111 135 111 2 0 3 -180 3 -400z"/>
<path d="M792 2047 c-29 -31 -28 -72 3 -102 l24 -25 510 0 c353 0 518 3 534
11 25 11 47 47 47 75 0 8 -11 26 -25 39 l-24 25 -524 0 -524 0 -21 -23z"/>
<path d="M2371 2052 c-33 -26 -31 -79 3 -109 24 -21 37 -23 121 -23 83 0 97 3
119 23 36 32 39 74 6 107 -17 17 -33 20 -124 20 -84 0 -108 -3 -125 -18z"/>
<path d="M3371 2052 c-33 -26 -31 -79 3 -109 24 -21 37 -23 121 -23 83 0 97 3
119 23 36 32 39 74 6 107 -17 17 -33 20 -124 20 -84 0 -108 -3 -125 -18z"/>
</g>
</svg>
